<?xml version="1.0" encoding="utf-8" standalone="no"?>
<!DOCTYPE svg PUBLIC "-//W3C//DTD SVG 1.1//EN"
  "http://www.w3.org/Graphics/SVG/1.1/DTD/svg11.dtd">
<svg xmlns:xlink="http://www.w3.org/1999/xlink" width="460.8pt" height="345.6pt" viewBox="0 0 460.8 345.6" xmlns="http://www.w3.org/2000/svg" version="1.1">
 <metadata>
  <rdf:RDF xmlns:dc="http://purl.org/dc/elements/1.1/" xmlns:cc="http://creativecommons.org/ns#" xmlns:rdf="http://www.w3.org/1999/02/22-rdf-syntax-ns#">
   <cc:Work>
    <dc:type rdf:resource="http://purl.org/dc/dcmitype/StillImage"/>
    <dc:date>2024-02-21T23:36:03.124449</dc:date>
    <dc:format>image/svg+xml</dc:format>
    <dc:creator>
     <cc:Agent>
      <dc:title>Matplotlib v3.8.2, https://matplotlib.org/</dc:title>
     </cc:Agent>
    </dc:creator>
   </cc:Work>
  </rdf:RDF>
 </metadata>
 <defs>
  <style type="text/css">*{stroke-linejoin: round; stroke-linecap: butt}</style>
 </defs>
 <g id="figure_1">
  <g id="patch_1">
   <path d="M 0 345.6 
L 460.8 345.6 
L 460.8 0 
L 0 0 
z
" style="fill: #ffffff"/>
  </g>
  <g id="axes_1">
   <g id="patch_2">
    <path d="M 57.6 307.584 
L 414.72 307.584 
L 414.72 41.472 
L 57.6 41.472 
z
" style="fill: #ffffff"/>
   </g>
   <g id="matplotlib.axis_1">
    <g id="xtick_1">
     <g id="line2d_1">
      <path d="M 73.832727 307.584 
L 73.832727 41.472 
" clip-path="url(#pbb2098c95a)" style="fill: none; stroke-dasharray: 2.96,1.28; stroke-dashoffset: 0; stroke: #b0b0b0; stroke-opacity: 0.5; stroke-width: 0.8"/>
     </g>
     <g id="line2d_2">
      <defs>
       <path id="m33310d7e27" d="M 0 0 
L 0 3.5 
" style="stroke: #000000; stroke-width: 0.8"/>
      </defs>
      <g>
       <use xlink:href="#m33310d7e27" x="73.832727" y="307.584" style="stroke: #000000; stroke-width: 0.8"/>
      </g>
     </g>
     <g id="text_1">
      <!-- 0 -->
      <g transform="translate(70.651477 322.182437) scale(0.1 -0.1)">
       <defs>
        <path id="DejaVuSans-30" d="M 2034 4250 
Q 1547 4250 1301 3770 
Q 1056 3291 1056 2328 
Q 1056 1369 1301 889 
Q 1547 409 2034 409 
Q 2525 409 2770 889 
Q 3016 1369 3016 2328 
Q 3016 3291 2770 3770 
Q 2525 4250 2034 4250 
z
M 2034 4750 
Q 2819 4750 3233 4129 
Q 3647 3509 3647 2328 
Q 3647 1150 3233 529 
Q 2819 -91 2034 -91 
Q 1250 -91 836 529 
Q 422 1150 422 2328 
Q 422 3509 836 4129 
Q 1250 4750 2034 4750 
z
" transform="scale(0.015625)"/>
       </defs>
       <use xlink:href="#DejaVuSans-30"/>
      </g>
     </g>
    </g>
    <g id="xtick_2">
     <g id="line2d_3">
      <path d="M 126.027992 307.584 
L 126.027992 41.472 
" clip-path="url(#pbb2098c95a)" style="fill: none; stroke-dasharray: 2.96,1.28; stroke-dashoffset: 0; stroke: #b0b0b0; stroke-opacity: 0.5; stroke-width: 0.8"/>
     </g>
     <g id="line2d_4">
      <g>
       <use xlink:href="#m33310d7e27" x="126.027992" y="307.584" style="stroke: #000000; stroke-width: 0.8"/>
      </g>
     </g>
     <g id="text_2">
      <!-- 50 -->
      <g transform="translate(119.665492 322.182437) scale(0.1 -0.1)">
       <defs>
        <path id="DejaVuSans-35" d="M 691 4666 
L 3169 4666 
L 3169 4134 
L 1269 4134 
L 1269 2991 
Q 1406 3038 1543 3061 
Q 1681 3084 1819 3084 
Q 2600 3084 3056 2656 
Q 3513 2228 3513 1497 
Q 3513 744 3044 326 
Q 2575 -91 1722 -91 
Q 1428 -91 1123 -41 
Q 819 9 494 109 
L 494 744 
Q 775 591 1075 516 
Q 1375 441 1709 441 
Q 2250 441 2565 725 
Q 2881 1009 2881 1497 
Q 2881 1984 2565 2268 
Q 2250 2553 1709 2553 
Q 1456 2553 1204 2497 
Q 953 2441 691 2322 
L 691 4666 
z
" transform="scale(0.015625)"/>
       </defs>
       <use xlink:href="#DejaVuSans-35"/>
       <use xlink:href="#DejaVuSans-30" x="63.623047"/>
      </g>
     </g>
    </g>
    <g id="xtick_3">
     <g id="line2d_5">
      <path d="M 178.223256 307.584 
L 178.223256 41.472 
" clip-path="url(#pbb2098c95a)" style="fill: none; stroke-dasharray: 2.96,1.28; stroke-dashoffset: 0; stroke: #b0b0b0; stroke-opacity: 0.5; stroke-width: 0.8"/>
     </g>
     <g id="line2d_6">
      <g>
       <use xlink:href="#m33310d7e27" x="178.223256" y="307.584" style="stroke: #000000; stroke-width: 0.8"/>
      </g>
     </g>
     <g id="text_3">
      <!-- 100 -->
      <g transform="translate(168.679506 322.182437) scale(0.1 -0.1)">
       <defs>
        <path id="DejaVuSans-31" d="M 794 531 
L 1825 531 
L 1825 4091 
L 703 3866 
L 703 4441 
L 1819 4666 
L 2450 4666 
L 2450 531 
L 3481 531 
L 3481 0 
L 794 0 
L 794 531 
z
" transform="scale(0.015625)"/>
       </defs>
       <use xlink:href="#DejaVuSans-31"/>
       <use xlink:href="#DejaVuSans-30" x="63.623047"/>
       <use xlink:href="#DejaVuSans-30" x="127.246094"/>
      </g>
     </g>
    </g>
    <g id="xtick_4">
     <g id="line2d_7">
      <path d="M 230.418521 307.584 
L 230.418521 41.472 
" clip-path="url(#pbb2098c95a)" style="fill: none; stroke-dasharray: 2.96,1.28; stroke-dashoffset: 0; stroke: #b0b0b0; stroke-opacity: 0.5; stroke-width: 0.8"/>
     </g>
     <g id="line2d_8">
      <g>
       <use xlink:href="#m33310d7e27" x="230.418521" y="307.584" style="stroke: #000000; stroke-width: 0.8"/>
      </g>
     </g>
     <g id="text_4">
      <!-- 150 -->
      <g transform="translate(220.874771 322.182437) scale(0.1 -0.1)">
       <use xlink:href="#DejaVuSans-31"/>
       <use xlink:href="#DejaVuSans-35" x="63.623047"/>
       <use xlink:href="#DejaVuSans-30" x="127.246094"/>
      </g>
     </g>
    </g>
    <g id="xtick_5">
     <g id="line2d_9">
      <path d="M 282.613785 307.584 
L 282.613785 41.472 
" clip-path="url(#pbb2098c95a)" style="fill: none; stroke-dasharray: 2.96,1.28; stroke-dashoffset: 0; stroke: #b0b0b0; stroke-opacity: 0.5; stroke-width: 0.8"/>
     </g>
     <g id="line2d_10">
      <g>
       <use xlink:href="#m33310d7e27" x="282.613785" y="307.584" style="stroke: #000000; stroke-width: 0.8"/>
      </g>
     </g>
     <g id="text_5">
      <!-- 200 -->
      <g transform="translate(273.070035 322.182437) scale(0.1 -0.1)">
       <defs>
        <path id="DejaVuSans-32" d="M 1228 531 
L 3431 531 
L 3431 0 
L 469 0 
L 469 531 
Q 828 903 1448 1529 
Q 2069 2156 2228 2338 
Q 2531 2678 2651 2914 
Q 2772 3150 2772 3378 
Q 2772 3750 2511 3984 
Q 2250 4219 1831 4219 
Q 1534 4219 1204 4116 
Q 875 4013 500 3803 
L 500 4441 
Q 881 4594 1212 4672 
Q 1544 4750 1819 4750 
Q 2544 4750 2975 4387 
Q 3406 4025 3406 3419 
Q 3406 3131 3298 2873 
Q 3191 2616 2906 2266 
Q 2828 2175 2409 1742 
Q 1991 1309 1228 531 
z
" transform="scale(0.015625)"/>
       </defs>
       <use xlink:href="#DejaVuSans-32"/>
       <use xlink:href="#DejaVuSans-30" x="63.623047"/>
       <use xlink:href="#DejaVuSans-30" x="127.246094"/>
      </g>
     </g>
    </g>
    <g id="xtick_6">
     <g id="line2d_11">
      <path d="M 334.80905 307.584 
L 334.80905 41.472 
" clip-path="url(#pbb2098c95a)" style="fill: none; stroke-dasharray: 2.96,1.28; stroke-dashoffset: 0; stroke: #b0b0b0; stroke-opacity: 0.5; stroke-width: 0.8"/>
     </g>
     <g id="line2d_12">
      <g>
       <use xlink:href="#m33310d7e27" x="334.80905" y="307.584" style="stroke: #000000; stroke-width: 0.8"/>
      </g>
     </g>
     <g id="text_6">
      <!-- 250 -->
      <g transform="translate(325.2653 322.182437) scale(0.1 -0.1)">
       <use xlink:href="#DejaVuSans-32"/>
       <use xlink:href="#DejaVuSans-35" x="63.623047"/>
       <use xlink:href="#DejaVuSans-30" x="127.246094"/>
      </g>
     </g>
    </g>
    <g id="xtick_7">
     <g id="line2d_13">
      <path d="M 387.004315 307.584 
L 387.004315 41.472 
" clip-path="url(#pbb2098c95a)" style="fill: none; stroke-dasharray: 2.96,1.28; stroke-dashoffset: 0; stroke: #b0b0b0; stroke-opacity: 0.5; stroke-width: 0.8"/>
     </g>
     <g id="line2d_14">
      <g>
       <use xlink:href="#m33310d7e27" x="387.004315" y="307.584" style="stroke: #000000; stroke-width: 0.8"/>
      </g>
     </g>
     <g id="text_7">
      <!-- 300 -->
      <g transform="translate(377.460565 322.182437) scale(0.1 -0.1)">
       <defs>
        <path id="DejaVuSans-33" d="M 2597 2516 
Q 3050 2419 3304 2112 
Q 3559 1806 3559 1356 
Q 3559 666 3084 287 
Q 2609 -91 1734 -91 
Q 1441 -91 1130 -33 
Q 819 25 488 141 
L 488 750 
Q 750 597 1062 519 
Q 1375 441 1716 441 
Q 2309 441 2620 675 
Q 2931 909 2931 1356 
Q 2931 1769 2642 2001 
Q 2353 2234 1838 2234 
L 1294 2234 
L 1294 2753 
L 1863 2753 
Q 2328 2753 2575 2939 
Q 2822 3125 2822 3475 
Q 2822 3834 2567 4026 
Q 2313 4219 1838 4219 
Q 1578 4219 1281 4162 
Q 984 4106 628 3988 
L 628 4550 
Q 988 4650 1302 4700 
Q 1616 4750 1894 4750 
Q 2613 4750 3031 4423 
Q 3450 4097 3450 3541 
Q 3450 3153 3228 2886 
Q 3006 2619 2597 2516 
z
" transform="scale(0.015625)"/>
       </defs>
       <use xlink:href="#DejaVuSans-33"/>
       <use xlink:href="#DejaVuSans-30" x="63.623047"/>
       <use xlink:href="#DejaVuSans-30" x="127.246094"/>
      </g>
     </g>
    </g>
    <g id="text_8">
     <!-- 2 hours/sample -->
     <g transform="translate(197.469375 335.860562) scale(0.1 -0.1)">
      <defs>
       <path id="DejaVuSans-20" transform="scale(0.015625)"/>
       <path id="DejaVuSans-68" d="M 3513 2113 
L 3513 0 
L 2938 0 
L 2938 2094 
Q 2938 2591 2744 2837 
Q 2550 3084 2163 3084 
Q 1697 3084 1428 2787 
Q 1159 2491 1159 1978 
L 1159 0 
L 581 0 
L 581 4863 
L 1159 4863 
L 1159 2956 
Q 1366 3272 1645 3428 
Q 1925 3584 2291 3584 
Q 2894 3584 3203 3211 
Q 3513 2838 3513 2113 
z
" transform="scale(0.015625)"/>
       <path id="DejaVuSans-6f" d="M 1959 3097 
Q 1497 3097 1228 2736 
Q 959 2375 959 1747 
Q 959 1119 1226 758 
Q 1494 397 1959 397 
Q 2419 397 2687 759 
Q 2956 1122 2956 1747 
Q 2956 2369 2687 2733 
Q 2419 3097 1959 3097 
z
M 1959 3584 
Q 2709 3584 3137 3096 
Q 3566 2609 3566 1747 
Q 3566 888 3137 398 
Q 2709 -91 1959 -91 
Q 1206 -91 779 398 
Q 353 888 353 1747 
Q 353 2609 779 3096 
Q 1206 3584 1959 3584 
z
" transform="scale(0.015625)"/>
       <path id="DejaVuSans-75" d="M 544 1381 
L 544 3500 
L 1119 3500 
L 1119 1403 
Q 1119 906 1312 657 
Q 1506 409 1894 409 
Q 2359 409 2629 706 
Q 2900 1003 2900 1516 
L 2900 3500 
L 3475 3500 
L 3475 0 
L 2900 0 
L 2900 538 
Q 2691 219 2414 64 
Q 2138 -91 1772 -91 
Q 1169 -91 856 284 
Q 544 659 544 1381 
z
M 1991 3584 
L 1991 3584 
z
" transform="scale(0.015625)"/>
       <path id="DejaVuSans-72" d="M 2631 2963 
Q 2534 3019 2420 3045 
Q 2306 3072 2169 3072 
Q 1681 3072 1420 2755 
Q 1159 2438 1159 1844 
L 1159 0 
L 581 0 
L 581 3500 
L 1159 3500 
L 1159 2956 
Q 1341 3275 1631 3429 
Q 1922 3584 2338 3584 
Q 2397 3584 2469 3576 
Q 2541 3569 2628 3553 
L 2631 2963 
z
" transform="scale(0.015625)"/>
       <path id="DejaVuSans-73" d="M 2834 3397 
L 2834 2853 
Q 2591 2978 2328 3040 
Q 2066 3103 1784 3103 
Q 1356 3103 1142 2972 
Q 928 2841 928 2578 
Q 928 2378 1081 2264 
Q 1234 2150 1697 2047 
L 1894 2003 
Q 2506 1872 2764 1633 
Q 3022 1394 3022 966 
Q 3022 478 2636 193 
Q 2250 -91 1575 -91 
Q 1294 -91 989 -36 
Q 684 19 347 128 
L 347 722 
Q 666 556 975 473 
Q 1284 391 1588 391 
Q 1994 391 2212 530 
Q 2431 669 2431 922 
Q 2431 1156 2273 1281 
Q 2116 1406 1581 1522 
L 1381 1569 
Q 847 1681 609 1914 
Q 372 2147 372 2553 
Q 372 3047 722 3315 
Q 1072 3584 1716 3584 
Q 2034 3584 2315 3537 
Q 2597 3491 2834 3397 
z
" transform="scale(0.015625)"/>
       <path id="DejaVuSans-2f" d="M 1625 4666 
L 2156 4666 
L 531 -594 
L 0 -594 
L 1625 4666 
z
" transform="scale(0.015625)"/>
       <path id="DejaVuSans-61" d="M 2194 1759 
Q 1497 1759 1228 1600 
Q 959 1441 959 1056 
Q 959 750 1161 570 
Q 1363 391 1709 391 
Q 2188 391 2477 730 
Q 2766 1069 2766 1631 
L 2766 1759 
L 2194 1759 
z
M 3341 1997 
L 3341 0 
L 2766 0 
L 2766 531 
Q 2569 213 2275 61 
Q 1981 -91 1556 -91 
Q 1019 -91 701 211 
Q 384 513 384 1019 
Q 384 1609 779 1909 
Q 1175 2209 1959 2209 
L 2766 2209 
L 2766 2266 
Q 2766 2663 2505 2880 
Q 2244 3097 1772 3097 
Q 1472 3097 1187 3025 
Q 903 2953 641 2809 
L 641 3341 
Q 956 3463 1253 3523 
Q 1550 3584 1831 3584 
Q 2591 3584 2966 3190 
Q 3341 2797 3341 1997 
z
" transform="scale(0.015625)"/>
       <path id="DejaVuSans-6d" d="M 3328 2828 
Q 3544 3216 3844 3400 
Q 4144 3584 4550 3584 
Q 5097 3584 5394 3201 
Q 5691 2819 5691 2113 
L 5691 0 
L 5113 0 
L 5113 2094 
Q 5113 2597 4934 2840 
Q 4756 3084 4391 3084 
Q 3944 3084 3684 2787 
Q 3425 2491 3425 1978 
L 3425 0 
L 2847 0 
L 2847 2094 
Q 2847 2600 2669 2842 
Q 2491 3084 2119 3084 
Q 1678 3084 1418 2786 
Q 1159 2488 1159 1978 
L 1159 0 
L 581 0 
L 581 3500 
L 1159 3500 
L 1159 2956 
Q 1356 3278 1631 3431 
Q 1906 3584 2284 3584 
Q 2666 3584 2933 3390 
Q 3200 3197 3328 2828 
z
" transform="scale(0.015625)"/>
       <path id="DejaVuSans-70" d="M 1159 525 
L 1159 -1331 
L 581 -1331 
L 581 3500 
L 1159 3500 
L 1159 2969 
Q 1341 3281 1617 3432 
Q 1894 3584 2278 3584 
Q 2916 3584 3314 3078 
Q 3713 2572 3713 1747 
Q 3713 922 3314 415 
Q 2916 -91 2278 -91 
Q 1894 -91 1617 61 
Q 1341 213 1159 525 
z
M 3116 1747 
Q 3116 2381 2855 2742 
Q 2594 3103 2138 3103 
Q 1681 3103 1420 2742 
Q 1159 2381 1159 1747 
Q 1159 1113 1420 752 
Q 1681 391 2138 391 
Q 2594 391 2855 752 
Q 3116 1113 3116 1747 
z
" transform="scale(0.015625)"/>
       <path id="DejaVuSans-6c" d="M 603 4863 
L 1178 4863 
L 1178 0 
L 603 0 
L 603 4863 
z
" transform="scale(0.015625)"/>
       <path id="DejaVuSans-65" d="M 3597 1894 
L 3597 1613 
L 953 1613 
Q 991 1019 1311 708 
Q 1631 397 2203 397 
Q 2534 397 2845 478 
Q 3156 559 3463 722 
L 3463 178 
Q 3153 47 2828 -22 
Q 2503 -91 2169 -91 
Q 1331 -91 842 396 
Q 353 884 353 1716 
Q 353 2575 817 3079 
Q 1281 3584 2069 3584 
Q 2775 3584 3186 3129 
Q 3597 2675 3597 1894 
z
M 3022 2063 
Q 3016 2534 2758 2815 
Q 2500 3097 2075 3097 
Q 1594 3097 1305 2825 
Q 1016 2553 972 2059 
L 3022 2063 
z
" transform="scale(0.015625)"/>
      </defs>
      <use xlink:href="#DejaVuSans-32"/>
      <use xlink:href="#DejaVuSans-20" x="63.623047"/>
      <use xlink:href="#DejaVuSans-68" x="95.410156"/>
      <use xlink:href="#DejaVuSans-6f" x="158.789062"/>
      <use xlink:href="#DejaVuSans-75" x="219.970703"/>
      <use xlink:href="#DejaVuSans-72" x="283.349609"/>
      <use xlink:href="#DejaVuSans-73" x="324.462891"/>
      <use xlink:href="#DejaVuSans-2f" x="376.5625"/>
      <use xlink:href="#DejaVuSans-73" x="410.253906"/>
      <use xlink:href="#DejaVuSans-61" x="462.353516"/>
      <use xlink:href="#DejaVuSans-6d" x="523.632812"/>
      <use xlink:href="#DejaVuSans-70" x="621.044922"/>
      <use xlink:href="#DejaVuSans-6c" x="684.521484"/>
      <use xlink:href="#DejaVuSans-65" x="712.304688"/>
     </g>
    </g>
   </g>
   <g id="matplotlib.axis_2">
    <g id="ytick_1">
     <g id="line2d_15">
      <path d="M 57.6 260.063826 
L 414.72 260.063826 
" clip-path="url(#pbb2098c95a)" style="fill: none; stroke-dasharray: 2.96,1.28; stroke-dashoffset: 0; stroke: #b0b0b0; stroke-opacity: 0.5; stroke-width: 0.8"/>
     </g>
     <g id="line2d_16">
      <defs>
       <path id="md9c5e0625e" d="M 0 0 
L -3.5 0 
" style="stroke: #000000; stroke-width: 0.8"/>
      </defs>
      <g>
       <use xlink:href="#md9c5e0625e" x="57.6" y="260.063826" style="stroke: #000000; stroke-width: 0.8"/>
      </g>
     </g>
     <g id="text_9">
      <!-- 9 -->
      <g transform="translate(44.2375 263.863045) scale(0.1 -0.1)">
       <defs>
        <path id="DejaVuSans-39" d="M 703 97 
L 703 672 
Q 941 559 1184 500 
Q 1428 441 1663 441 
Q 2288 441 2617 861 
Q 2947 1281 2994 2138 
Q 2813 1869 2534 1725 
Q 2256 1581 1919 1581 
Q 1219 1581 811 2004 
Q 403 2428 403 3163 
Q 403 3881 828 4315 
Q 1253 4750 1959 4750 
Q 2769 4750 3195 4129 
Q 3622 3509 3622 2328 
Q 3622 1225 3098 567 
Q 2575 -91 1691 -91 
Q 1453 -91 1209 -44 
Q 966 3 703 97 
z
M 1959 2075 
Q 2384 2075 2632 2365 
Q 2881 2656 2881 3163 
Q 2881 3666 2632 3958 
Q 2384 4250 1959 4250 
Q 1534 4250 1286 3958 
Q 1038 3666 1038 3163 
Q 1038 2656 1286 2365 
Q 1534 2075 1959 2075 
z
" transform="scale(0.015625)"/>
       </defs>
       <use xlink:href="#DejaVuSans-39"/>
      </g>
     </g>
    </g>
    <g id="ytick_2">
     <g id="line2d_17">
      <path d="M 57.6 212.227769 
L 414.72 212.227769 
" clip-path="url(#pbb2098c95a)" style="fill: none; stroke-dasharray: 2.96,1.28; stroke-dashoffset: 0; stroke: #b0b0b0; stroke-opacity: 0.5; stroke-width: 0.8"/>
     </g>
     <g id="line2d_18">
      <g>
       <use xlink:href="#md9c5e0625e" x="57.6" y="212.227769" style="stroke: #000000; stroke-width: 0.8"/>
      </g>
     </g>
     <g id="text_10">
      <!-- 10 -->
      <g transform="translate(37.875 216.026987) scale(0.1 -0.1)">
       <use xlink:href="#DejaVuSans-31"/>
       <use xlink:href="#DejaVuSans-30" x="63.623047"/>
      </g>
     </g>
    </g>
    <g id="ytick_3">
     <g id="line2d_19">
      <path d="M 57.6 164.391711 
L 414.72 164.391711 
" clip-path="url(#pbb2098c95a)" style="fill: none; stroke-dasharray: 2.96,1.28; stroke-dashoffset: 0; stroke: #b0b0b0; stroke-opacity: 0.5; stroke-width: 0.8"/>
     </g>
     <g id="line2d_20">
      <g>
       <use xlink:href="#md9c5e0625e" x="57.6" y="164.391711" style="stroke: #000000; stroke-width: 0.8"/>
      </g>
     </g>
     <g id="text_11">
      <!-- 11 -->
      <g transform="translate(37.875 168.190929) scale(0.1 -0.1)">
       <use xlink:href="#DejaVuSans-31"/>
       <use xlink:href="#DejaVuSans-31" x="63.623047"/>
      </g>
     </g>
    </g>
    <g id="ytick_4">
     <g id="line2d_21">
      <path d="M 57.6 116.555653 
L 414.72 116.555653 
" clip-path="url(#pbb2098c95a)" style="fill: none; stroke-dasharray: 2.96,1.28; stroke-dashoffset: 0; stroke: #b0b0b0; stroke-opacity: 0.5; stroke-width: 0.8"/>
     </g>
     <g id="line2d_22">
      <g>
       <use xlink:href="#md9c5e0625e" x="57.6" y="116.555653" style="stroke: #000000; stroke-width: 0.8"/>
      </g>
     </g>
     <g id="text_12">
      <!-- 12 -->
      <g transform="translate(37.875 120.354871) scale(0.1 -0.1)">
       <use xlink:href="#DejaVuSans-31"/>
       <use xlink:href="#DejaVuSans-32" x="63.623047"/>
      </g>
     </g>
    </g>
    <g id="ytick_5">
     <g id="line2d_23">
      <path d="M 57.6 68.719595 
L 414.72 68.719595 
" clip-path="url(#pbb2098c95a)" style="fill: none; stroke-dasharray: 2.96,1.28; stroke-dashoffset: 0; stroke: #b0b0b0; stroke-opacity: 0.5; stroke-width: 0.8"/>
     </g>
     <g id="line2d_24">
      <g>
       <use xlink:href="#md9c5e0625e" x="57.6" y="68.719595" style="stroke: #000000; stroke-width: 0.8"/>
      </g>
     </g>
     <g id="text_13">
      <!-- 13 -->
      <g transform="translate(37.875 72.518813) scale(0.1 -0.1)">
       <use xlink:href="#DejaVuSans-31"/>
       <use xlink:href="#DejaVuSans-33" x="63.623047"/>
      </g>
     </g>
    </g>
    <g id="text_14">
     <!-- mg/L -->
     <g transform="translate(31.795313 187.042844) rotate(-90) scale(0.1 -0.1)">
      <defs>
       <path id="DejaVuSans-67" d="M 2906 1791 
Q 2906 2416 2648 2759 
Q 2391 3103 1925 3103 
Q 1463 3103 1205 2759 
Q 947 2416 947 1791 
Q 947 1169 1205 825 
Q 1463 481 1925 481 
Q 2391 481 2648 825 
Q 2906 1169 2906 1791 
z
M 3481 434 
Q 3481 -459 3084 -895 
Q 2688 -1331 1869 -1331 
Q 1566 -1331 1297 -1286 
Q 1028 -1241 775 -1147 
L 775 -588 
Q 1028 -725 1275 -790 
Q 1522 -856 1778 -856 
Q 2344 -856 2625 -561 
Q 2906 -266 2906 331 
L 2906 616 
Q 2728 306 2450 153 
Q 2172 0 1784 0 
Q 1141 0 747 490 
Q 353 981 353 1791 
Q 353 2603 747 3093 
Q 1141 3584 1784 3584 
Q 2172 3584 2450 3431 
Q 2728 3278 2906 2969 
L 2906 3500 
L 3481 3500 
L 3481 434 
z
" transform="scale(0.015625)"/>
       <path id="DejaVuSans-4c" d="M 628 4666 
L 1259 4666 
L 1259 531 
L 3531 531 
L 3531 0 
L 628 0 
L 628 4666 
z
" transform="scale(0.015625)"/>
      </defs>
      <use xlink:href="#DejaVuSans-6d"/>
      <use xlink:href="#DejaVuSans-67" x="97.412109"/>
      <use xlink:href="#DejaVuSans-2f" x="160.888672"/>
      <use xlink:href="#DejaVuSans-4c" x="194.580078"/>
     </g>
    </g>
   </g>
   <g id="line2d_25">
    <path d="M 73.832727 195.823141 
L 74.876633 192.611556 
L 75.920538 187.684955 
L 76.964443 186.894104 
L 78.008348 178.318087 
L 79.052254 174.511714 
L 80.096159 175.307099 
L 81.140064 160.062627 
L 82.18397 153.988112 
L 83.227875 159.915525 
L 84.27178 184.65434 
L 85.315685 193.893574 
L 87.403496 181.907739 
L 88.447401 173.45161 
L 89.491307 160.552261 
L 90.535212 152.415317 
L 91.579117 140.722722 
L 92.623023 131.697259 
L 93.666928 117.092043 
L 94.710833 106.080342 
L 95.754738 100.561921 
L 96.798644 98.973328 
L 97.842549 100.65774 
L 98.886454 98.1664 
L 99.93036 85.469306 
L 100.974265 79.404629 
L 102.01817 76.835682 
L 103.062075 70.482876 
L 104.105981 63.081872 
L 106.193791 72.699083 
L 107.237697 82.249423 
L 108.281602 95.098257 
L 109.325507 98.601184 
L 110.369412 98.870448 
L 113.501128 69.020397 
L 114.545034 69.389849 
L 115.588939 64.015512 
L 116.632844 64.655816 
L 117.676749 63.577662 
L 118.720655 69.588872 
L 119.76456 68.653839 
L 120.808465 75.625665 
L 121.852371 75.629268 
L 122.896276 79.219241 
L 123.940181 74.603442 
L 126.027992 69.983256 
L 127.071897 68.818894 
L 128.115802 68.201183 
L 129.159708 61.672198 
L 130.203613 53.729843 
L 131.247518 53.657713 
L 135.423139 111.797811 
L 136.467045 122.797095 
L 137.51095 127.166555 
L 138.554855 123.975638 
L 139.598761 125.677473 
L 140.642666 125.733782 
L 141.686571 111.055303 
L 142.730476 104.31519 
L 143.774382 120.445982 
L 144.818287 116.646382 
L 145.862192 96.053401 
L 146.906098 110.232498 
L 147.950003 112.934746 
L 148.993908 110.230877 
L 150.037814 106.11472 
L 151.081719 101.094401 
L 152.125624 104.792839 
L 153.169529 88.039621 
L 154.213435 84.262382 
L 155.25734 96.866095 
L 156.301245 89.658517 
L 157.345151 90.623851 
L 158.389056 92.703269 
L 159.432961 101.174673 
L 161.520772 120.564409 
L 162.564677 122.55701 
L 163.608582 131.141147 
L 164.652488 131.957188 
L 165.696393 134.770981 
L 166.740298 135.180735 
L 167.784203 140.702858 
L 168.828109 141.497867 
L 169.872014 157.282745 
L 170.915919 176.403905 
L 171.959825 190.415543 
L 173.00373 198.57115 
L 174.047635 196.370977 
L 175.09154 190.719781 
L 176.135446 195.166087 
L 177.179351 186.927086 
L 178.223256 185.088 
L 179.267162 176.113823 
L 180.311067 172.000703 
L 182.398878 155.87814 
L 183.442783 150.710355 
L 184.486688 156.316594 
L 185.530593 163.602195 
L 186.574499 168.400553 
L 187.618404 160.955799 
L 188.662309 162.461519 
L 189.706215 160.474164 
L 190.75012 161.188241 
L 191.794025 157.839688 
L 192.83793 160.11795 
L 193.881836 156.188737 
L 194.925741 153.696441 
L 195.969646 150.568311 
L 197.013552 152.073987 
L 198.057457 158.440661 
L 199.101362 167.592047 
L 200.145267 179.275651 
L 201.189173 188.678324 
L 202.233078 189.634768 
L 203.276983 182.992353 
L 204.320889 170.387326 
L 205.364794 164.344645 
L 206.408699 159.151193 
L 207.452605 166.121225 
L 208.49651 165.89948 
L 209.540415 163.799673 
L 210.58432 168.949284 
L 211.628226 165.820576 
L 212.672131 167.299871 
L 213.716036 163.236682 
L 214.759942 155.820821 
L 215.803847 153.942808 
L 216.847752 147.577142 
L 217.891657 142.316283 
L 218.935563 138.609436 
L 219.979468 132.299619 
L 221.023373 140.625234 
L 222.067279 143.102467 
L 223.111184 147.32053 
L 225.198994 125.489853 
L 226.2429 120.66881 
L 227.286805 106.642664 
L 228.33071 101.798627 
L 230.418521 88.451718 
L 231.462426 89.022325 
L 232.506331 87.09946 
L 233.550237 92.467108 
L 234.594142 110.59163 
L 235.638047 117.218172 
L 236.681953 126.225751 
L 237.725858 127.662249 
L 238.769763 124.573433 
L 239.813669 122.480604 
L 240.857574 116.441657 
L 241.901479 113.356224 
L 242.945384 106.406032 
L 243.98929 102.278894 
L 245.033195 103.425311 
L 246.0771 106.70839 
L 247.121006 119.366724 
L 248.164911 124.351239 
L 249.208816 122.802201 
L 250.252721 121.051296 
L 251.296627 112.144702 
L 252.340532 105.579187 
L 253.384437 97.610577 
L 254.428343 94.154938 
L 255.472248 89.397979 
L 256.516153 94.35579 
L 257.560058 90.178672 
L 258.603964 104.186959 
L 259.647869 123.946446 
L 260.691774 154.590744 
L 261.73568 167.533538 
L 262.779585 167.679835 
L 263.82349 162.588058 
L 264.867395 162.936075 
L 265.911301 161.456988 
L 267.999111 140.517245 
L 269.043017 138.479837 
L 270.086922 143.522136 
L 271.130827 151.200382 
L 272.174733 169.80009 
L 273.218638 180.034554 
L 274.262543 182.917565 
L 275.306448 176.312827 
L 276.350354 170.965031 
L 277.394259 166.823771 
L 278.438164 166.926267 
L 279.48207 151.09718 
L 280.525975 150.92716 
L 281.56988 147.543358 
L 282.613785 155.722466 
L 283.657691 157.196842 
L 284.701596 167.506755 
L 285.745501 176.150929 
L 286.789407 175.173475 
L 287.833312 164.402951 
L 288.877217 147.497747 
L 290.965028 135.401683 
L 293.052838 122.324792 
L 294.096744 113.615065 
L 295.140649 121.346665 
L 296.184554 127.436231 
L 297.22846 143.097836 
L 298.272365 156.959338 
L 299.31627 158.518662 
L 300.360175 155.200424 
L 301.404081 148.096097 
L 302.447986 141.816681 
L 303.491891 137.731997 
L 304.535797 132.303159 
L 305.579702 128.274292 
L 306.623607 122.584227 
L 307.667512 120.814255 
L 310.799228 148.84912 
L 311.843134 151.531659 
L 313.930944 139.058963 
L 314.974849 128.495764 
L 317.06266 113.982796 
L 318.106565 109.601085 
L 319.150471 102.281088 
L 320.194376 108.482942 
L 321.238281 118.650585 
L 323.326092 142.883353 
L 324.369997 151.059124 
L 325.413902 145.765947 
L 327.501713 144.128749 
L 328.545618 140.281019 
L 329.589524 150.165847 
L 330.633429 157.531092 
L 331.677334 172.278581 
L 332.721239 174.119848 
L 334.80905 190.590459 
L 335.852955 187.474407 
L 336.896861 191.260952 
L 337.940766 192.537058 
L 338.984671 193.278274 
L 341.072482 182.970742 
L 343.160292 152.168729 
L 344.204198 145.618849 
L 345.248103 139.994049 
L 346.292008 141.708359 
L 347.335913 144.087849 
L 348.379819 143.290201 
L 349.423724 141.288271 
L 350.467629 147.500184 
L 351.511535 151.420271 
L 352.55544 156.544385 
L 353.599345 154.478713 
L 354.643251 151.397784 
L 355.687156 147.341078 
L 356.731061 142.371811 
L 357.774966 133.837246 
L 358.818872 133.459479 
L 359.862777 129.560135 
L 360.906682 124.774482 
L 361.950588 128.936557 
L 362.994493 130.106824 
L 364.038398 130.127538 
L 365.082303 136.298695 
L 366.126209 129.709875 
L 367.170114 125.524735 
L 368.214019 118.385657 
L 369.257925 114.305003 
L 370.30183 115.712367 
L 371.345735 112.550767 
L 372.38964 121.282494 
L 373.433546 131.293539 
L 374.477451 143.77426 
L 375.521356 151.19642 
L 376.565262 152.443057 
L 377.609167 154.489159 
L 378.653072 154.876073 
L 379.696977 168.277288 
L 380.740883 176.708039 
L 381.784788 194.753935 
L 382.828693 217.748604 
L 384.916504 249.228986 
L 385.960409 264.830799 
L 387.004315 277.140273 
L 388.04822 284.192871 
L 389.092125 286.469029 
L 390.13603 287.706349 
L 391.179936 283.943646 
L 392.223841 279.522812 
L 393.267746 272.300408 
L 394.311652 268.893146 
L 395.355557 261.498973 
L 396.399462 271.6116 
L 397.443367 284.03343 
L 398.487273 285.429924 
L 398.487273 285.429924 
" clip-path="url(#pbb2098c95a)" style="fill: none; stroke: #ff0000; stroke-width: 1.5; stroke-linecap: square"/>
   </g>
   <g id="line2d_26">
    <path d="M 73.832727 199.219494 
L 74.876633 198.781633 
L 75.920538 192.539491 
L 76.964443 184.586827 
L 78.008348 184.333772 
L 79.052254 179.123327 
L 80.096159 171.379694 
L 81.140064 165.080801 
L 82.18397 157.584656 
L 83.227875 162.337715 
L 84.27178 174.065983 
L 85.315685 188.730447 
L 86.359591 198.425021 
L 87.403496 185.267569 
L 88.447401 174.806077 
L 89.491307 166.243473 
L 90.535212 154.324057 
L 91.579117 144.908906 
L 92.623023 132.863441 
L 93.666928 118.562158 
L 94.710833 105.903241 
L 95.754738 97.267554 
L 96.798644 97.006699 
L 97.842549 102.218512 
L 98.886454 104.810779 
L 99.93036 96.752686 
L 100.974265 85.225511 
L 102.01817 78.525299 
L 103.062075 77.779229 
L 104.105981 71.775224 
L 105.149886 60.619486 
L 106.193791 64.665891 
L 107.237697 73.124938 
L 108.281602 83.695005 
L 109.325507 96.54402 
L 110.369412 97.613536 
L 111.413318 93.143048 
L 112.457223 83.093322 
L 114.545034 67.944054 
L 115.588939 71.890688 
L 116.632844 67.996016 
L 117.676749 66.622077 
L 118.720655 64.623738 
L 119.76456 67.127547 
L 120.808465 67.547753 
L 121.852371 74.642259 
L 122.896276 75.858261 
L 123.940181 79.728983 
L 124.984087 76.300319 
L 126.027992 71.984483 
L 127.071897 69.490391 
L 128.115802 67.927084 
L 130.203613 53.568 
L 131.247518 55.289471 
L 132.291424 62.157018 
L 134.379234 91.561356 
L 135.423139 105.949956 
L 137.51095 123.511428 
L 138.554855 127.686481 
L 139.598761 122.643781 
L 140.642666 120.190701 
L 141.686571 113.081278 
L 142.730476 100.493209 
L 143.774382 92.70391 
L 144.818287 109.934409 
L 145.862192 124.011606 
L 146.906098 104.473966 
L 147.950003 112.422205 
L 148.993908 115.346631 
L 151.081719 106.860851 
L 152.125624 103.525389 
L 153.169529 104.826016 
L 154.213435 89.148878 
L 155.25734 82.980869 
L 156.301245 94.865797 
L 157.345151 94.004719 
L 158.389056 98.03835 
L 159.432961 103.411065 
L 161.520772 119.232407 
L 162.564677 124.606035 
L 163.608582 127.316457 
L 164.652488 133.132645 
L 165.696393 132.845877 
L 166.740298 137.231376 
L 167.784203 138.066176 
L 168.828109 147.322433 
L 169.872014 157.736616 
L 170.915919 172.163172 
L 171.959825 188.197377 
L 173.00373 198.770136 
L 174.047635 198.464756 
L 175.09154 194.888146 
L 176.135446 188.286291 
L 177.179351 194.057315 
L 179.267162 177.693915 
L 180.311067 173.345552 
L 182.398878 163.902846 
L 183.442783 159.661462 
L 184.486688 159.518717 
L 185.530593 164.710458 
L 186.574499 168.679263 
L 187.618404 171.699718 
L 188.662309 164.397322 
L 189.706215 163.423973 
L 190.75012 163.497011 
L 191.794025 162.003594 
L 192.83793 158.938111 
L 193.881836 161.818194 
L 194.925741 156.598351 
L 195.969646 159.013019 
L 197.013552 156.360945 
L 198.057457 161.715868 
L 199.101362 174.954798 
L 200.145267 183.796505 
L 201.189173 194.372047 
L 202.233078 195.212459 
L 203.276983 190.23568 
L 204.320889 177.795465 
L 205.364794 169.158911 
L 206.408699 165.687365 
L 207.452605 164.875237 
L 208.49651 170.289969 
L 209.540415 169.754572 
L 210.58432 171.584117 
L 211.628226 169.996586 
L 212.672131 166.213911 
L 213.716036 166.252916 
L 214.759942 161.251867 
L 215.803847 152.253957 
L 217.891657 146.893331 
L 218.935563 141.843103 
L 219.979468 143.911652 
L 221.023373 133.691809 
L 222.067279 141.050592 
L 223.111184 145.636134 
L 224.155089 146.334303 
L 225.198994 135.260819 
L 226.2429 121.595935 
L 227.286805 118.248155 
L 228.33071 106.319022 
L 229.374616 99.647733 
L 230.418521 95.767111 
L 231.462426 90.214927 
L 232.506331 93.916763 
L 233.550237 100.940604 
L 234.594142 109.188339 
L 235.638047 121.932383 
L 236.681953 125.014425 
L 237.725858 128.778032 
L 238.769763 131.283072 
L 239.813669 125.562094 
L 240.857574 121.463819 
L 241.901479 116.344158 
L 243.98929 106.893789 
L 245.033195 107.128093 
L 246.0771 112.108704 
L 247.121006 115.224917 
L 248.164911 125.482259 
L 249.208816 129.64837 
L 250.252721 125.134132 
L 251.296627 121.204287 
L 252.340532 111.728872 
L 253.384437 110.058313 
L 254.428343 99.714657 
L 255.472248 94.241806 
L 256.516153 93.535563 
L 257.560058 96.336632 
L 258.603964 102.359615 
L 259.647869 126.237726 
L 262.779585 175.714508 
L 263.82349 173.553032 
L 264.867395 163.465487 
L 265.911301 165.300553 
L 266.955206 161.939224 
L 267.999111 150.20945 
L 269.043017 139.951743 
L 270.086922 139.973823 
L 271.130827 153.156549 
L 272.174733 162.571609 
L 273.218638 180.770347 
L 274.262543 189.471636 
L 275.306448 186.035536 
L 276.350354 176.256885 
L 277.394259 171.595522 
L 278.438164 167.701808 
L 279.48207 170.494255 
L 280.525975 155.783213 
L 281.56988 151.556199 
L 282.613785 153.536472 
L 283.657691 162.330644 
L 284.701596 168.508826 
L 285.745501 172.20496 
L 286.789407 180.478242 
L 287.833312 172.788577 
L 288.877217 161.104697 
L 289.921122 144.244861 
L 290.965028 137.159387 
L 292.008933 133.428947 
L 293.052838 125.575506 
L 294.096744 122.069288 
L 295.140649 116.184397 
L 297.22846 139.967436 
L 298.272365 149.483499 
L 299.31627 161.781379 
L 300.360175 160.594437 
L 301.404081 154.631262 
L 304.535797 134.106085 
L 305.579702 130.165154 
L 306.623607 127.478591 
L 307.667512 124.018039 
L 308.711418 124.404623 
L 309.755323 137.297525 
L 310.799228 148.214441 
L 311.843134 152.103776 
L 312.887039 151.645614 
L 316.018755 126.443974 
L 317.06266 118.073476 
L 318.106565 112.16468 
L 319.150471 109.365527 
L 320.194376 107.361804 
L 321.238281 114.555397 
L 323.326092 140.576783 
L 324.369997 148.628397 
L 325.413902 151.628415 
L 326.457808 147.871287 
L 327.501713 145.50119 
L 328.545618 146.573626 
L 329.589524 145.831844 
L 330.633429 157.40724 
L 331.677334 162.506281 
L 332.721239 173.898056 
L 333.765145 180.65949 
L 334.80905 182.850666 
L 335.852955 192.782783 
L 336.896861 191.520705 
L 337.940766 197.958739 
L 338.984671 198.418132 
L 340.028576 193.882544 
L 341.072482 185.124641 
L 342.116387 174.814517 
L 344.204198 148.650021 
L 345.248103 148.901524 
L 346.292008 139.578389 
L 347.335913 142.98292 
L 348.379819 145.275462 
L 349.423724 151.414366 
L 350.467629 147.821835 
L 351.511535 153.03593 
L 352.55544 153.25007 
L 353.599345 156.433709 
L 354.643251 153.645504 
L 355.687156 148.263026 
L 357.774966 140.437459 
L 358.818872 133.278492 
L 359.862777 133.791079 
L 360.906682 133.570825 
L 361.950588 130.43641 
L 362.994493 132.305098 
L 364.038398 136.578644 
L 365.082303 133.155501 
L 366.126209 132.857146 
L 368.214019 120.604977 
L 369.257925 117.355326 
L 370.30183 118.494686 
L 371.345735 122.458153 
L 372.38964 122.812575 
L 373.433546 130.457304 
L 374.477451 142.609018 
L 375.521356 151.849855 
L 376.565262 158.921505 
L 377.609167 162.230918 
L 378.653072 157.798112 
L 379.696977 162.775165 
L 381.784788 192.827216 
L 382.828693 211.050498 
L 383.872599 234.003983 
L 385.960409 266.525264 
L 387.004315 281.833791 
L 388.04822 291.849712 
L 389.092125 295.371943 
L 390.13603 295.488 
L 391.179936 291.974711 
L 393.267746 281.703272 
L 394.311652 273.525291 
L 395.355557 274.064611 
L 396.399462 273.989885 
L 397.443367 281.336898 
L 398.487273 290.771437 
L 398.487273 290.771437 
" clip-path="url(#pbb2098c95a)" style="fill: none; stroke: #0000ff; stroke-width: 1.5; stroke-linecap: square"/>
   </g>
   <g id="patch_3">
    <path d="M 57.6 307.584 
L 57.6 41.472 
" style="fill: none; stroke: #000000; stroke-width: 0.8; stroke-linejoin: miter; stroke-linecap: square"/>
   </g>
   <g id="patch_4">
    <path d="M 414.72 307.584 
L 414.72 41.472 
" style="fill: none; stroke: #000000; stroke-width: 0.8; stroke-linejoin: miter; stroke-linecap: square"/>
   </g>
   <g id="patch_5">
    <path d="M 57.6 307.584 
L 414.72 307.584 
" style="fill: none; stroke: #000000; stroke-width: 0.8; stroke-linejoin: miter; stroke-linecap: square"/>
   </g>
   <g id="patch_6">
    <path d="M 57.6 41.472 
L 414.72 41.472 
" style="fill: none; stroke: #000000; stroke-width: 0.8; stroke-linejoin: miter; stroke-linecap: square"/>
   </g>
   <g id="text_15">
    <!-- Effluent TN -->
    <g transform="translate(202.768125 35.472) scale(0.12 -0.12)">
     <defs>
      <path id="DejaVuSans-45" d="M 628 4666 
L 3578 4666 
L 3578 4134 
L 1259 4134 
L 1259 2753 
L 3481 2753 
L 3481 2222 
L 1259 2222 
L 1259 531 
L 3634 531 
L 3634 0 
L 628 0 
L 628 4666 
z
" transform="scale(0.015625)"/>
      <path id="DejaVuSans-66" d="M 2375 4863 
L 2375 4384 
L 1825 4384 
Q 1516 4384 1395 4259 
Q 1275 4134 1275 3809 
L 1275 3500 
L 2222 3500 
L 2222 3053 
L 1275 3053 
L 1275 0 
L 697 0 
L 697 3053 
L 147 3053 
L 147 3500 
L 697 3500 
L 697 3744 
Q 697 4328 969 4595 
Q 1241 4863 1831 4863 
L 2375 4863 
z
" transform="scale(0.015625)"/>
      <path id="DejaVuSans-6e" d="M 3513 2113 
L 3513 0 
L 2938 0 
L 2938 2094 
Q 2938 2591 2744 2837 
Q 2550 3084 2163 3084 
Q 1697 3084 1428 2787 
Q 1159 2491 1159 1978 
L 1159 0 
L 581 0 
L 581 3500 
L 1159 3500 
L 1159 2956 
Q 1366 3272 1645 3428 
Q 1925 3584 2291 3584 
Q 2894 3584 3203 3211 
Q 3513 2838 3513 2113 
z
" transform="scale(0.015625)"/>
      <path id="DejaVuSans-74" d="M 1172 4494 
L 1172 3500 
L 2356 3500 
L 2356 3053 
L 1172 3053 
L 1172 1153 
Q 1172 725 1289 603 
Q 1406 481 1766 481 
L 2356 481 
L 2356 0 
L 1766 0 
Q 1100 0 847 248 
Q 594 497 594 1153 
L 594 3053 
L 172 3053 
L 172 3500 
L 594 3500 
L 594 4494 
L 1172 4494 
z
" transform="scale(0.015625)"/>
      <path id="DejaVuSans-54" d="M -19 4666 
L 3928 4666 
L 3928 4134 
L 2272 4134 
L 2272 0 
L 1638 0 
L 1638 4134 
L -19 4134 
L -19 4666 
z
" transform="scale(0.015625)"/>
      <path id="DejaVuSans-4e" d="M 628 4666 
L 1478 4666 
L 3547 763 
L 3547 4666 
L 4159 4666 
L 4159 0 
L 3309 0 
L 1241 3903 
L 1241 0 
L 628 0 
L 628 4666 
z
" transform="scale(0.015625)"/>
     </defs>
     <use xlink:href="#DejaVuSans-45"/>
     <use xlink:href="#DejaVuSans-66" x="63.183594"/>
     <use xlink:href="#DejaVuSans-66" x="98.388672"/>
     <use xlink:href="#DejaVuSans-6c" x="133.59375"/>
     <use xlink:href="#DejaVuSans-75" x="161.376953"/>
     <use xlink:href="#DejaVuSans-65" x="224.755859"/>
     <use xlink:href="#DejaVuSans-6e" x="286.279297"/>
     <use xlink:href="#DejaVuSans-74" x="349.658203"/>
     <use xlink:href="#DejaVuSans-20" x="388.867188"/>
     <use xlink:href="#DejaVuSans-54" x="420.654297"/>
     <use xlink:href="#DejaVuSans-4e" x="481.738281"/>
    </g>
   </g>
   <g id="legend_1">
    <g id="patch_7">
     <path d="M 322.490313 78.82825 
L 407.72 78.82825 
Q 409.72 78.82825 409.72 76.82825 
L 409.72 48.472 
Q 409.72 46.472 407.72 46.472 
L 322.490313 46.472 
Q 320.490313 46.472 320.490313 48.472 
L 320.490313 76.82825 
Q 320.490313 78.82825 322.490313 78.82825 
z
" style="fill: #ffffff; opacity: 0.8; stroke: #cccccc; stroke-linejoin: miter"/>
    </g>
    <g id="line2d_27">
     <path d="M 324.490313 54.570437 
L 334.490313 54.570437 
L 344.490313 54.570437 
" style="fill: none; stroke: #ff0000; stroke-width: 1.5; stroke-linecap: square"/>
    </g>
    <g id="text_16">
     <!-- real value -->
     <g transform="translate(352.490313 58.070437) scale(0.1 -0.1)">
      <defs>
       <path id="DejaVuSans-76" d="M 191 3500 
L 800 3500 
L 1894 563 
L 2988 3500 
L 3597 3500 
L 2284 0 
L 1503 0 
L 191 3500 
z
" transform="scale(0.015625)"/>
      </defs>
      <use xlink:href="#DejaVuSans-72"/>
      <use xlink:href="#DejaVuSans-65" x="38.863281"/>
      <use xlink:href="#DejaVuSans-61" x="100.386719"/>
      <use xlink:href="#DejaVuSans-6c" x="161.666016"/>
      <use xlink:href="#DejaVuSans-20" x="189.449219"/>
      <use xlink:href="#DejaVuSans-76" x="221.236328"/>
      <use xlink:href="#DejaVuSans-61" x="280.416016"/>
      <use xlink:href="#DejaVuSans-6c" x="341.695312"/>
      <use xlink:href="#DejaVuSans-75" x="369.478516"/>
      <use xlink:href="#DejaVuSans-65" x="432.857422"/>
     </g>
    </g>
    <g id="line2d_28">
     <path d="M 324.490313 69.248562 
L 334.490313 69.248562 
L 344.490313 69.248562 
" style="fill: none; stroke: #0000ff; stroke-width: 1.5; stroke-linecap: square"/>
    </g>
    <g id="text_17">
     <!-- pred value -->
     <g transform="translate(352.490313 72.748562) scale(0.1 -0.1)">
      <defs>
       <path id="DejaVuSans-64" d="M 2906 2969 
L 2906 4863 
L 3481 4863 
L 3481 0 
L 2906 0 
L 2906 525 
Q 2725 213 2448 61 
Q 2172 -91 1784 -91 
Q 1150 -91 751 415 
Q 353 922 353 1747 
Q 353 2572 751 3078 
Q 1150 3584 1784 3584 
Q 2172 3584 2448 3432 
Q 2725 3281 2906 2969 
z
M 947 1747 
Q 947 1113 1208 752 
Q 1469 391 1925 391 
Q 2381 391 2643 752 
Q 2906 1113 2906 1747 
Q 2906 2381 2643 2742 
Q 2381 3103 1925 3103 
Q 1469 3103 1208 2742 
Q 947 2381 947 1747 
z
" transform="scale(0.015625)"/>
      </defs>
      <use xlink:href="#DejaVuSans-70"/>
      <use xlink:href="#DejaVuSans-72" x="63.476562"/>
      <use xlink:href="#DejaVuSans-65" x="102.339844"/>
      <use xlink:href="#DejaVuSans-64" x="163.863281"/>
      <use xlink:href="#DejaVuSans-20" x="227.339844"/>
      <use xlink:href="#DejaVuSans-76" x="259.126953"/>
      <use xlink:href="#DejaVuSans-61" x="318.306641"/>
      <use xlink:href="#DejaVuSans-6c" x="379.585938"/>
      <use xlink:href="#DejaVuSans-75" x="407.369141"/>
      <use xlink:href="#DejaVuSans-65" x="470.748047"/>
     </g>
    </g>
   </g>
  </g>
 </g>
 <defs>
  <clipPath id="pbb2098c95a">
   <rect x="57.6" y="41.472" width="357.12" height="266.112"/>
  </clipPath>
 </defs>
</svg>
